<svg xmlns="http://www.w3.org/2000/svg" viewBox="0 0 1850 240" width="1850" height="240">
<defs>
<marker id="arrowhead" markerWidth="8" markerHeight="6" refX="8" refY="3" orient="auto">
<polygon points="0 0, 8 3, 0 6" fill="#606080"/>
</marker>
</defs>
<rect width="100%" height="100%" fill="#f8f8f8"/>
<text x="925.0" y="35" text-anchor="middle" font-family="sans-serif" font-size="20" font-weight="bold" fill="#1a1a2e">PRJ-003 — Agentic ASIC Design Pipeline</text>
<text x="925.0" y="58" text-anchor="middle" font-family="sans-serif" font-size="12" fill="#666688">Autonomous stage-to-stage verification | No human wrote RTL or ran EDA tools</text>
<rect x="60" y="75.0" width="120" height="50" rx="8" ry="8" fill="#2d2d3f" stroke="#404060" stroke-width="1.5"/>
<text x="120.0" y="100.0" text-anchor="middle" font-family="sans-serif" font-size="12" fill="#ffffff">Business</text>
<line x1="183" y1="100" x2="225" y2="100" stroke="#606080" stroke-width="2" marker-end="url(#arrowhead)"/>
<circle cx="207.5" cy="82" r="12" fill="#40a040" stroke="#2d7d2d" stroke-width="1"/>
<polyline points="202.5,82 206.5,86 212.5,78" fill="none" stroke="white" stroke-width="2.5" stroke-linecap="round" stroke-linejoin="round"/>
<rect x="235" y="75.0" width="120" height="50" rx="8" ry="8" fill="#2d2d3f" stroke="#404060" stroke-width="1.5"/>
<text x="295.0" y="100.0" text-anchor="middle" font-family="sans-serif" font-size="12" fill="#ffffff">Specification</text>
<line x1="358" y1="100" x2="400" y2="100" stroke="#606080" stroke-width="2" marker-end="url(#arrowhead)"/>
<circle cx="382.5" cy="82" r="12" fill="#40a040" stroke="#2d7d2d" stroke-width="1"/>
<polyline points="377.5,82 381.5,86 387.5,78" fill="none" stroke="white" stroke-width="2.5" stroke-linecap="round" stroke-linejoin="round"/>
<rect x="410" y="75.0" width="120" height="50" rx="8" ry="8" fill="#2d2d3f" stroke="#404060" stroke-width="1.5"/>
<text x="470.0" y="100.0" text-anchor="middle" font-family="sans-serif" font-size="12" fill="#ffffff">Architecture</text>
<line x1="533" y1="100" x2="575" y2="100" stroke="#606080" stroke-width="2" marker-end="url(#arrowhead)"/>
<circle cx="557.5" cy="82" r="12" fill="#40a040" stroke="#2d7d2d" stroke-width="1"/>
<polyline points="552.5,82 556.5,86 562.5,78" fill="none" stroke="white" stroke-width="2.5" stroke-linecap="round" stroke-linejoin="round"/>
<rect x="585" y="75.0" width="120" height="50" rx="8" ry="8" fill="#2d2d3f" stroke="#404060" stroke-width="1.5"/>
<text x="645.0" y="100.0" text-anchor="middle" font-family="sans-serif" font-size="12" fill="#ffffff">RTL+Formal</text>
<line x1="708" y1="100" x2="750" y2="100" stroke="#606080" stroke-width="2" marker-end="url(#arrowhead)"/>
<circle cx="732.5" cy="82" r="12" fill="#40a040" stroke="#2d7d2d" stroke-width="1"/>
<polyline points="727.5,82 731.5,86 737.5,78" fill="none" stroke="white" stroke-width="2.5" stroke-linecap="round" stroke-linejoin="round"/>
<rect x="760" y="75.0" width="120" height="50" rx="8" ry="8" fill="#2d2d3f" stroke="#404060" stroke-width="1.5"/>
<text x="820.0" y="100.0" text-anchor="middle" font-family="sans-serif" font-size="12" fill="#ffffff">Firmware</text>
<line x1="883" y1="100" x2="925" y2="100" stroke="#606080" stroke-width="2" marker-end="url(#arrowhead)"/>
<circle cx="907.5" cy="82" r="12" fill="#40a040" stroke="#2d7d2d" stroke-width="1"/>
<polyline points="902.5,82 906.5,86 912.5,78" fill="none" stroke="white" stroke-width="2.5" stroke-linecap="round" stroke-linejoin="round"/>
<rect x="935" y="75.0" width="120" height="50" rx="8" ry="8" fill="#2d2d3f" stroke="#404060" stroke-width="1.5"/>
<text x="995.0" y="100.0" text-anchor="middle" font-family="sans-serif" font-size="12" fill="#ffffff">Verification</text>
<line x1="1058" y1="100" x2="1100" y2="100" stroke="#606080" stroke-width="2" marker-end="url(#arrowhead)"/>
<circle cx="1082.5" cy="82" r="12" fill="#40a040" stroke="#2d7d2d" stroke-width="1"/>
<polyline points="1077.5,82 1081.5,86 1087.5,78" fill="none" stroke="white" stroke-width="2.5" stroke-linecap="round" stroke-linejoin="round"/>
<rect x="1110" y="75.0" width="120" height="50" rx="8" ry="8" fill="#2d2d3f" stroke="#404060" stroke-width="1.5"/>
<text x="1170.0" y="100.0" text-anchor="middle" font-family="sans-serif" font-size="12" fill="#ffffff">Promotion</text>
<line x1="1233" y1="100" x2="1275" y2="100" stroke="#606080" stroke-width="2" marker-end="url(#arrowhead)"/>
<circle cx="1257.5" cy="82" r="12" fill="#40a040" stroke="#2d7d2d" stroke-width="1"/>
<polyline points="1252.5,82 1256.5,86 1262.5,78" fill="none" stroke="white" stroke-width="2.5" stroke-linecap="round" stroke-linejoin="round"/>
<rect x="1285" y="75.0" width="120" height="60" rx="8" ry="8" fill="#2d2d3f" stroke="#404060" stroke-width="1.5"/>
<text x="1345.0" y="98.0" text-anchor="middle" font-family="sans-serif" font-size="12" fill="#ffffff">Backend/</text>
<text x="1345.0" y="114.0" text-anchor="middle" font-family="sans-serif" font-size="12" fill="#ffffff">LibreLane</text>
<line x1="1408" y1="100" x2="1450" y2="100" stroke="#606080" stroke-width="2" marker-end="url(#arrowhead)"/>
<circle cx="1432.5" cy="82" r="12" fill="#40a040" stroke="#2d7d2d" stroke-width="1"/>
<polyline points="1427.5,82 1431.5,86 1437.5,78" fill="none" stroke="white" stroke-width="2.5" stroke-linecap="round" stroke-linejoin="round"/>
<rect x="1460" y="75.0" width="120" height="50" rx="8" ry="8" fill="#2d2d3f" stroke="#404060" stroke-width="1.5"/>
<text x="1520.0" y="100.0" text-anchor="middle" font-family="sans-serif" font-size="12" fill="#ffffff">Caravel</text>
<line x1="1583" y1="100" x2="1625" y2="100" stroke="#606080" stroke-width="2" marker-end="url(#arrowhead)"/>
<circle cx="1607.5" cy="82" r="12" fill="#40a040" stroke="#2d7d2d" stroke-width="1"/>
<polyline points="1602.5,82 1606.5,86 1612.5,78" fill="none" stroke="white" stroke-width="2.5" stroke-linecap="round" stroke-linejoin="round"/>
<rect x="1635" y="75.0" width="120" height="50" rx="8" ry="8" fill="#2d2d3f" stroke="#404060" stroke-width="1.5"/>
<text x="1695.0" y="100.0" text-anchor="middle" font-family="sans-serif" font-size="12" fill="#ffffff">Tapeout</text>
<rect x="60" y="170" width="1730" height="28" rx="6" ry="6" fill="#e8e8f0" stroke="#d0d0d8" stroke-width="1"/>
<text x="925.0" y="189.0" text-anchor="middle" font-family="sans-serif" font-size="13" fill="#40a040" font-weight="bold">✓ 10/10 stages audited PASS  |  Claude Opus 4.8 self-audit gate</text>
</svg>